<svg xmlns="http://www.w3.org/2000/svg" version="1.0" width="2312.000000pt" height="724.000000pt" viewBox="0 0 2312.000000 724.000000" preserveAspectRatio="xMidYMid meet">

<g transform="translate(0.000000,724.000000) scale(0.100000,-0.100000)" fill="#e60c0c" stroke="none">
<path d="M11022 5850 c-259 -47 -479 -215 -581 -442 -16 -34 -90 -272 -166 -528 -76 -256 -141 -468 -144 -472 -3 -4 -84 206 -180 465 -96 260 -193 508 -215 551 -72 138 -212 270 -360 336 -129 58 -179 65 -436 63 -519 -5 -1789 -52 -2900 -108 -653 -33 -751 -41 -840 -66 -268 -74 -480 -291 -550 -563 -19 -77 -20 -108 -20 -1238 0 -945 -2 -1158 -13 -1158 -38 0 -950 -65 -1402 -101 -286 -22 -557 -43 -602 -46 l-83 -6 0 1069 c0 629 -4 1096 -10 1135 -14 96 -54 214 -97 289 -47 80 -188 223 -266 269 -82 48 -201 88 -301 101 -68 9 -115 9 -243 -4 -232 -24 -337 -57 -467 -150 -138 -98 -239 -236 -298 -406 l-33 -95 0 -1690 0 -1690 33 -95 c102 -294 333 -481 641 -520 58 -8 139 -4 400 20 1483 134 3542 278 4586 320 132 6 454 19 715 30 261 11 607 24 768 30 161 6 316 15 345 20 252 48 463 215 571 452 l32 70 36 -73 c72 -145 194 -266 343 -339 140 -70 209 -83 445 -82 518 2 1081 14 1145 24 205 31 416 166 522 332 15 25 31 45 35 46 4 0 14 -12 22 -27 21 -41 98 -127 158 -179 93 -80 238 -148 359 -169 24 -5 224 -9 444 -10 567 -3 1933 -32 2640 -57 182 -6 440 -11 575 -12 l245 -1 95 33 c98 34 189 85 266 150 96 79 203 251 234 374 l12 45 106 -106 c310 -311 700 -500 1212 -590 180 -32 254 -39 750 -71 596 -39 944 -64 1355 -97 405 -33 739 -36 938 -9 775 106 1286 516 1523 1224 183 547 191 1316 18 1914 -99 347 -270 644 -504 879 -300 301 -683 492 -1195 594 -233 46 -481 67 -2080 176 -744 51 -1117 14 -1520 -151 l-93 -38 -54 55 c-97 99 -231 175 -370 208 -112 27 -1361 74 -2808 105 -668 15 -2673 21 -2738 10z m714 -499 c33 -20 64 -75 64 -114 0 -14 -206 -732 -458 -1596 -502 -1718 -468 -1619 -552 -1640 -19 -5 -296 -12 -615 -15 -562 -5 -581 -5 -612 14 -18 10 -39 29 -47 42 -8 13 -267 717 -575 1566 -376 1033 -561 1555 -561 1581 0 45 32 97 76 123 26 15 69 18 336 24 302 7 306 7 341 -15 23 -14 42 -37 55 -69 16 -38 407 -1089 795 -2140 41 -111 82 -213 91 -226 8 -13 36 -32 61 -42 45 -17 48 -17 93 2 28 12 53 31 63 49 10 17 173 554 364 1195 190 641 351 1177 357 1193 6 15 26 41 45 57 l34 30 307 0 c283 0 309 -2 338 -19z m1174 -2 c76 -43 70 109 70 -1671 0 -1541 -1 -1594 -19 -1624 -10 -17 -35 -39 -56 -48 -34 -17 -67 -17 -439 -11 -438 8 -440 8 -476 68 -20 31 -20 63 -20 1631 l0 1598 39 39 39 39 412 0 c400 0 413 -1 450 -21z m1090 1 c897 -21 2195 -64 2356 -79 98 -9 129 -23 158 -73 14 -23 16 -98 16 -643 0 -680 3 -651 -62 -690 -28 -16 -51 -17 -268 -10 -265 8 -283 5 -317 -58 -17 -30 -18 -95 -23 -912 -5 -832 -6 -882 -23 -909 -36 -54 -60 -57 -339 -46 -307 11 -885 29 -1295 38 -332 8 -326 7 -377 76 -21 27 -21 38 -26 914 -5 834 -6 889 -23 914 -34 49 -64 55 -310 63 -210 7 -230 9 -260 29 -69 46 -67 25 -67 684 0 649 -1 634 59 685 l33 27 171 0 c95 0 363 -5 597 -10z m-5820 -46 c73 -29 80 -53 80 -270 0 -212 -7 -236 -72 -270 -38 -20 -30 -19 -613 -40 -497 -17 -499 -18 -542 -83 -23 -33 -23 -39 -23 -340 0 -286 1 -308 20 -338 40 -67 33 -66 503 -49 232 9 464 18 515 21 108 5 143 -5 185 -54 l27 -33 0 -176 c0 -198 -7 -225 -72 -258 -38 -20 -30 -19 -613 -40 -497 -17 -499 -17 -543 -84 l-23 -34 3 -349 3 -349 39 -35 39 -36 186 6 c102 3 352 11 554 18 358 13 369 13 404 -6 61 -33 73 -74 73 -260 0 -88 -5 -177 -10 -197 -13 -45 -68 -95 -112 -102 -18 -3 -238 -12 -488 -21 -250 -9 -594 -22 -765 -30 -451 -21 -481 -21 -521 10 -20 15 -38 41 -44 63 -8 26 -10 507 -8 1612 l3 1575 23 33 c13 18 37 39 53 47 31 17 281 31 1059 60 407 15 512 19 597 23 24 1 61 -5 83 -14z m-2450 -109 c15 -8 38 -27 49 -41 l21 -27 0 -1597 0 -1597 -22 -33 c-40 -58 -71 -67 -252 -75 -184 -8 -204 -4 -243 54 l-23 34 0 1587 0 1587 23 33 c38 57 76 72 201 80 184 11 215 11 246 -5z m12863 -20 c872 -56 1688 -118 1847 -141 142 -20 375 -78 485 -121 579 -226 868 -658 936 -1396 15 -167 6 -585 -15 -727 -93 -600 -359 -948 -828 -1084 -257 -74 -502 -83 -1093 -37 -456 35 -960 71 -1440 101 -181 11 -384 27 -450 36 -774 97 -1224 480 -1375 1169 -36 168 -51 300 -57 526 -29 1047 339 1584 1152 1683 169 21 408 18 838 -9z m-16763 -270 c64 -33 60 60 60 -1435 0 -1532 -6 -1416 74 -1450 39 -17 51 -17 301 5 588 53 1735 140 2313 176 218 14 243 9 282 -53 19 -29 20 -47 18 -155 -3 -105 -6 -125 -24 -150 -45 -60 -51 -61 -455 -88 -826 -56 -1749 -129 -2547 -201 -284 -26 -304 -27 -337 -11 -19 9 -42 29 -52 44 -17 26 -18 103 -18 1618 l0 1590 23 38 c13 21 38 45 55 54 60 31 259 43 307 18z" fill="#e60c0c"/>
<path d="M19051 3804 c-69 -36 -71 -44 -71 -377 0 -336 2 -348 71 -394 32 -21 57 -27 158 -35 109 -9 124 -8 158 9 20 10 46 31 57 46 20 27 21 43 24 330 2 297 2 303 -20 342 -36 63 -88 83 -228 90 -97 5 -120 3 -149 -11z" fill="#e60c0c"/>
</g>
</svg>